<svg xmlns="http://www.w3.org/2000/svg" xmlns:xlink="http://www.w3.org/1999/xlink" width="100" height="100" viewBox="0 0 100 100"><g><g transform="translate(50 50) scale(0.69 0.69) rotate(0) translate(-50 -50)" style="fill:#2196f3"><svg fill="#2196f3" xmlns="http://www.w3.org/2000/svg" viewBox="0 0 64 64" x="0px" y="0px"><defs><style>.cls-1{fill:none;stroke:#2196f3;stroke-miterlimit:10;stroke-width:2px;}</style></defs><title>smartphone</title><g data-name="Layer 3"><rect class="cls-1" x="3" y="31" width="16" height="12"></rect><polyline class="cls-1" points="3 33 11 39 19 33"></polyline><polyline class="cls-1" points="17 28 17 9 47 9 47 14"></polyline><polyline class="cls-1" points="47 32 47 55 17 55 17 46"></polyline><rect class="cls-1" x="27" y="47" width="10" height="4"></rect><polyline class="cls-1" points="27 13 21 13 21 19"></polyline><line class="cls-1" x1="21" y1="21" x2="21" y2="24"></line><line class="cls-1" x1="17" y1="49" x2="27" y2="49"></line><line class="cls-1" x1="37" y1="49" x2="47" y2="49"></line><polyline class="cls-1" points="43 35 43 43 40 43"></polyline><line class="cls-1" x1="38" y1="43" x2="36" y2="43"></line><polygon class="cls-1" points="61 29 55 29 51 33 51 29 43 29 43 17 61 17 61 29"></polygon><line class="cls-1" x1="47" y1="23" x2="49" y2="23"></line><line class="cls-1" x1="51" y1="23" x2="53" y2="23"></line><line class="cls-1" x1="55" y1="23" x2="57" y2="23"></line><polyline class="cls-1" points="22 34 26 34 26 32 31 37 26 42 26 40 22 40"></polyline></g></svg></g></g></svg>