<?xml version="1.0" encoding="utf-8"?>
<!-- Generator: Adobe Illustrator 23.0.3, SVG Export Plug-In . SVG Version: 6.00 Build 0)  -->
<svg version="1.1" id="Layer_1" xmlns="http://www.w3.org/2000/svg" xmlns:xlink="http://www.w3.org/1999/xlink" x="0px" y="0px"
	 viewBox="0 0 509.35 135.83" style="enable-background:new 0 0 509.35 135.83;" xml:space="preserve">
<style type="text/css">
	.st0{display:none;}
	.st1{fill:#2196F3;}
	.st2{fill:none;stroke:#2196F3;stroke-width:5;}
	.st3{fill:none;stroke:#2196F3;stroke-width:3;stroke-linejoin:round;}
	.st4{fill:none;stroke:#2196F3;stroke-width:2;stroke-linecap:round;stroke-linejoin:round;}
	.st5{fill:none;stroke:#2196F3;stroke-width:3;stroke-linecap:round;stroke-linejoin:round;}
	.st6{fill-rule:evenodd;clip-rule:evenodd;fill:#2196F3;}
</style>
<rect x="6.33" y="-24.99" class="st0" width="514.57" height="176.09"/>
<g>
	<g transform="translate(50 50) scale(0.69 0.69) rotate(0) translate(-50 -50)">
		<g transform="translate(0,-1020.3622)">
			<path class="st1" d="M23.68,1002.36c-10.49,0-19.08,8.6-19.08,19.09v133.1h-8.95h-4.48c-2.47,0-4.48,2-4.48,4.48
				c0,17.28,14.05,31.33,31.33,31.33h205.9c17.28,0,31.33-14.05,31.33-31.33c0-2.47-2-4.48-4.48-4.48h-4.48h-8.95v-133.1
				c0-10.5-8.58-19.09-19.08-19.09H23.68z M23.68,1011.32h194.61c5.68,0,10.12,4.44,10.12,10.14v133.1h-84.61
				c-0.09,0-0.15,0.09-0.24,0.09c-0.12-0.01-0.24-0.09-0.37-0.09c-2.25,0-4.34,1.48-4.3,4.49c0,2.56-1.92,4.48-4.48,4.48h-26.86
				c-2.49,0-4.34-1.83-4.44-4.28c0.09-2.32-1.4-4.71-4.51-4.67H13.56v-133.1c0-5.7,4.44-10.14,10.12-10.14l0,0V1011.32z
				 M26.99,1020.27c-2.47,0-4.48,2-4.48,4.48v116.38c0,2.47,2,4.48,4.48,4.48h188c2.47,0,4.48-2,4.48-4.48v-116.38
				c0-2.47-2-4.48-4.48-4.48H26.99z M31.46,1029.22h179.05v107.43H31.46V1029.22z M-2.51,1163.5h97.48
				c1.87,5.18,6.8,8.95,12.59,8.95h26.86c5.79,0,10.72-3.77,12.59-8.95h97.48c-2.28,9.97-9.83,17.9-20.54,17.9H18.04
				C7.32,1181.41-0.23,1173.47-2.51,1163.5z"/>
		</g>
	</g>
</g>
<g>
	<g transform="translate(50 50) scale(0.69 0.69) rotate(0) translate(-50 -50)">
		<g>
			<path class="st2" d="M636.43-14.75h49.19c11.55,0,20.92,9.37,20.92,20.92v139.67c0,11.55-9.37,20.92-20.92,20.92h-49.19
				c-11.55,0-20.92-9.37-20.92-20.92V6.17C615.5-5.39,624.87-14.75,636.43-14.75z"/>
			<rect x="625.12" y="8.43" class="st3" width="71.81" height="131.75"/>
			<rect x="649.43" y="149.79" class="st4" width="22.92" height="8.33"/>
			<line class="st5" x1="641.51" y1="-1.75" x2="680.53" y2="-1.75"/>
			<circle class="st6" cx="689.63" cy="-1.8" r="2.88"/>
		</g>
	</g>
</g>
<g>
	<g transform="translate(50 50) scale(0.69 0.69) rotate(0) translate(-50 -50)">
		<g>
			<path class="st1" d="M469.46,88.6h-76.61c-3.72,0-6.76,3.04-6.76,6.76v42.81c0,3.72,3.04,6.76,6.76,6.76h34.92l30.42,20.28
				l-4.51-20.28h15.77c3.72,0,6.76-3.04,6.76-6.76V95.36C476.22,91.65,473.18,88.6,469.46,88.6z M471.72,138.17
				c0,1.22-1.03,2.25-2.25,2.25h-15.77h-5.62l1.22,5.48l2.07,9.33l-21.09-14.06l-1.14-0.76h-1.36h-34.92
				c-1.22,0-2.25-1.03-2.25-2.25V95.36c0-1.22,1.03-2.25,2.25-2.25h76.61c1.22,0,2.25,1.03,2.25,2.25V138.17z"/>
			<path class="st1" d="M431.16,107.76c-4.97,0-9.01,4.04-9.01,9.01s4.04,9.01,9.01,9.01c4.97,0,9.01-4.04,9.01-9.01
				S436.13,107.76,431.16,107.76z M431.16,121.27c-2.49,0-4.51-2.02-4.51-4.51c0-2.49,2.02-4.51,4.51-4.51
				c2.49,0,4.51,2.02,4.51,4.51C435.67,119.25,433.64,121.27,431.16,121.27z"/>
			<path class="st1" d="M406.37,107.76c-4.97,0-9.01,4.04-9.01,9.01s4.04,9.01,9.01,9.01c4.97,0,9.01-4.04,9.01-9.01
				S411.34,107.76,406.37,107.76z M406.37,121.27c-2.49,0-4.51-2.02-4.51-4.51c0-2.49,2.02-4.51,4.51-4.51
				c2.49,0,4.51,2.02,4.51,4.51C410.88,119.25,408.86,121.27,406.37,121.27z"/>
			<path class="st1" d="M455.94,107.76c-4.97,0-9.01,4.04-9.01,9.01s4.04,9.01,9.01,9.01c4.97,0,9.01-4.04,9.01-9.01
				S460.91,107.76,455.94,107.76z M455.94,121.27c-2.49,0-4.51-2.02-4.51-4.51c0-2.49,2.02-4.51,4.51-4.51
				c2.49,0,4.51,2.02,4.51,4.51C460.45,119.25,458.43,121.27,455.94,121.27z"/>
		</g>
	</g>
</g>
<g>
	<g transform="translate(50 50) scale(0.69 0.69) rotate(0) translate(-50 -50)">
		<g>
			<path class="st1" d="M384.14-12.9h94.03c1.79,0,2.99,1.49,2.99,2.99v64.78c0,1.79-1.49,2.99-2.99,2.99h-94.03
				c-1.79,0-2.99-1.49-2.99-2.99V-9.92C381.16-11.71,382.65-12.9,384.14-12.9z M475.19-6.93h-88.06v58.81h88.06V-6.93z"/>
			<path class="st1" d="M391.31,1.72c-3.28-2.09,0.3-7.16,3.28-4.78l36.42,25.07l36.42-25.07c3.28-2.39,6.57,2.69,3.58,4.78
				L432.8,27.99c-0.9,0.6-2.39,0.6-3.28,0L391.31,1.72z"/>
		</g>
	</g>
</g>
<g>
	<g transform="translate(50 50) scale(0.69 0.69) rotate(0) translate(-50 -50)">
		<g>
			<path class="st1" d="M339.47,37.85c-3.09,2.47,1.23,7.1,4.01,4.32l21.4-17.39c1.23-1.23,1.23-3.4,0-4.63l-21.4-17.39
				c-2.78-2.78-7.1,1.85-4.01,4.63l15.23,12.14h-85.8c-4.01,0-4.01,6.17,0,6.17h85.8L339.47,37.85z"/>
		</g>
	</g>
</g>
<g>
	<g transform="translate(50 50) scale(0.69 0.69) rotate(0) translate(-50 -50)">
		<g>
			<path class="st1" d="M574.52,37.85c-3.09,2.47,1.23,7.1,4.01,4.32l21.4-17.39c1.23-1.23,1.23-3.4,0-4.63l-21.4-17.39
				c-2.78-2.78-7.1,1.85-4.01,4.63l15.23,12.14h-85.8c-4.01,0-4.01,6.17,0,6.17h85.8L574.52,37.85z"/>
		</g>
	</g>
</g>
<g>
	<g transform="translate(50 50) scale(0.69 0.69) rotate(0) translate(-50 -50)">
		<g>
			<path class="st1" d="M277,120.01h85.8c4.01,0,4.01-6.17,0-6.17H277l15.23-12.14c3.09-2.78-1.23-7.41-4.01-4.63l-21.4,17.39
				c-1.23,1.23-1.23,3.4,0,4.63l21.4,17.39c2.78,2.78,7.1-1.85,4.01-4.32L277,120.01z"/>
		</g>
	</g>
</g>
<g>
	<g transform="translate(50 50) scale(0.69 0.69) rotate(0) translate(-50 -50)">
		<g>
			<path class="st1" d="M512.05,120.01h85.8c4.01,0,4.01-6.17,0-6.17h-85.8l15.23-12.14c3.09-2.78-1.23-7.41-4.01-4.63l-21.4,17.39
				c-1.23,1.23-1.23,3.4,0,4.63l21.4,17.39c2.78,2.78,7.1-1.85,4.01-4.32L512.05,120.01z"/>
		</g>
	</g>
</g>
</svg>
